<svg width="75" height="75" viewBox="0 0 75 75" fill="none" xmlns="http://www.w3.org/2000/svg">
<rect x="1.5" y="1.5" width="72" height="72" rx="13.5" fill="#000000" stroke="#c2c2c2" stroke-width="3"/>
<circle cx="38" cy="26" r="14.5" fill="#000000" stroke="#c2c2c2" stroke-width="3"/>
<mask id="path-3-inside-1_3_27" fill="#c2c2c2">
<path d="M62 62C62 59.3736 61.3792 56.7728 60.1731 54.3463C58.967 51.9198 57.1992 49.715 54.9706 47.8579C52.742 46.0007 50.0962 44.5275 47.1844 43.5224C44.2726 42.5173 41.1517 42 38 42C34.8483 42 31.7274 42.5173 28.8156 43.5224C25.9038 44.5275 23.258 46.0007 21.0294 47.8579C18.8008 49.715 17.033 51.9198 15.8269 54.3463C14.6208 56.7728 14 59.3736 14 62L38 62H62Z"/>
</mask>
<path d="M62 62C62 59.3736 61.3792 56.7728 60.1731 54.3463C58.967 51.9198 57.1992 49.715 54.9706 47.8579C52.742 46.0007 50.0962 44.5275 47.1844 43.5224C44.2726 42.5173 41.1517 42 38 42C34.8483 42 31.7274 42.5173 28.8156 43.5224C25.9038 44.5275 23.258 46.0007 21.0294 47.8579C18.8008 49.715 17.033 51.9198 15.8269 54.3463C14.6208 56.7728 14 59.3736 14 62L38 62H62Z" fill="#000000" stroke="#c2c2c2" stroke-width="6" mask="url(#path-3-inside-1_3_27)"/>
</svg>
