<svg width="80" height="80" viewBox="0 0 80 80" fill="none" xmlns="http://www.w3.org/2000/svg">
<path d="M0 15C0 6.71573 6.71573 0 15 0H65C73.2843 0 80 6.71573 80 15V65C80 73.2843 73.2843 80 65 80H15C6.71573 80 0 73.2843 0 65V15Z" fill="white"/>
<path fill-rule="evenodd" clip-rule="evenodd" d="M50.4796 62.2684C47.1012 64.642 43.1809 66 39 66C26.2975 66 16 53.464 16 38C16 22.536 26.2975 10 39 10C51.7025 10 62 22.536 62 38C62 45.6414 59.4856 52.5679 55.409 57.6202L63.6645 65.8757L58.8757 70.6645L50.4796 62.2684ZM45.6959 57.4848C43.7045 58.462 41.5288 59 39.25 59C29.7231 59 22 49.598 22 38C22 26.402 29.7231 17 39.25 17C48.7769 17 56.5 26.402 56.5 38C56.5 44.0254 54.4155 49.4581 51.0765 53.2877L43.7888 46L39 50.7888L45.6959 57.4848Z" fill="black"/>
<path d="M50.8332 61.9149L50.536 61.6178L50.1922 61.8593C46.8904 64.179 43.0691 65.5 39 65.5C26.6611 65.5 16.5 53.2843 16.5 38C16.5 22.7157 26.6611 10.5 39 10.5C51.3389 10.5 61.5 22.7157 61.5 38C61.5 45.5337 59.0207 52.3478 55.0199 57.3062L54.7377 57.656L55.0555 57.9737L62.9574 65.8757L58.8757 69.9574L50.8332 61.9149ZM64.0181 66.2292L64.3716 65.8757L64.0181 65.5221L56.0777 57.5817C60.0646 52.469 62.5 45.5738 62.5 38C62.5 22.3564 52.0662 9.5 39 9.5C25.9338 9.5 15.5 22.3564 15.5 38C15.5 53.6436 25.9338 66.5 39 66.5C43.1499 66.5 47.0443 65.1962 50.4204 62.9164L58.5221 71.0181L58.8757 71.3716L59.2292 71.0181L64.0181 66.2292ZM45.9162 57.9336L46.5438 57.6256L46.0495 57.1312L39.7071 50.7888L43.7888 46.7071L50.723 53.6412L51.1016 54.0198L51.4534 53.6163C54.8768 49.6899 57 44.1383 57 38C57 26.2224 49.1405 16.5 39.25 16.5C29.3595 16.5 21.5 26.2224 21.5 38C21.5 49.7776 29.3595 59.5 39.25 59.5C41.6091 59.5 43.8597 58.9428 45.9162 57.9336ZM44.1424 45.6464L43.7888 45.2929L43.4353 45.6464L38.6464 50.4353L38.2929 50.7888L38.6464 51.1424L44.8355 57.3315C43.0872 58.0888 41.2075 58.5 39.25 58.5C30.0867 58.5 22.5 49.4183 22.5 38C22.5 26.5817 30.0867 17.5 39.25 17.5C48.4133 17.5 56 26.5817 56 38C56 43.6998 54.0988 48.8433 51.0462 52.5502L44.1424 45.6464ZM15 0.5H65C73.0081 0.5 79.5 6.99187 79.5 15V65C79.5 73.0081 73.0081 79.5 65 79.5H15C6.99187 79.5 0.5 73.0081 0.5 65V15C0.5 6.99187 6.99187 0.5 15 0.5Z" stroke="black"/>
</svg>
