<svg width="75" height="75" viewBox="0 0 75 75" fill="none" xmlns="http://www.w3.org/2000/svg">
<rect x="1.5" y="1.5" width="72" height="72" rx="13.5" fill="white" stroke="black" stroke-width="3"/>
<path d="M14.5011 47.1306C13.7226 46.8473 12.8618 47.2486 12.5785 48.0271L7.96124 60.713C7.6779 61.4914 8.07928 62.3522 8.85775 62.6355C9.63621 62.9189 10.497 62.5175 10.7803 61.739L14.8846 50.4627L26.1609 54.5669C26.9393 54.8503 27.8001 54.4489 28.0834 53.6704C28.3668 52.892 27.9654 52.0312 27.1869 51.7479L14.5011 47.1306ZM27.4221 61.4975L26.8377 62.879L27.4221 61.4975ZM46.0765 62.1149L46.5683 63.532L46.0765 62.1149ZM62.857 31.5804L64.3169 31.2359L62.857 31.5804ZM10.0622 38.299C10.0847 39.1272 10.7743 39.7802 11.6024 39.7577C12.4305 39.7352 13.0836 39.0457 13.0611 38.2175L10.0622 38.299ZM12.6286 49.1741C15.5055 55.3436 20.5683 60.2268 26.8377 62.879L28.0065 60.116C22.4211 57.7532 17.9105 53.4027 15.3475 47.9062L12.6286 49.1741ZM26.8377 62.879C33.107 65.5312 40.1373 65.7639 46.5683 63.532L45.5847 60.6978C39.8553 62.6862 33.592 62.4789 28.0065 60.116L26.8377 62.879ZM46.5683 63.532C52.9993 61.3002 58.374 56.7624 61.6525 50.7966L59.0234 49.3518C56.1025 54.6667 51.3141 58.7095 45.5847 60.6978L46.5683 63.532ZM61.6525 50.7966C64.931 44.8309 65.8804 37.8612 64.3169 31.2359L61.3971 31.9249C62.79 37.8274 61.9442 44.0368 59.0234 49.3518L61.6525 50.7966ZM64.3169 31.2359C62.7534 24.6106 58.7882 18.8006 53.1884 14.93L51.4826 17.3979C56.4715 20.8462 60.0041 26.0224 61.3971 31.9249L64.3169 31.2359ZM53.1884 14.93C47.5886 11.0595 40.7522 9.40339 34.0019 10.2822L34.3892 13.2571C40.4031 12.4742 46.4937 13.9496 51.4826 17.3979L53.1884 14.93ZM34.0019 10.2822C27.2516 11.161 21.0671 14.5122 16.645 19.6875L18.9257 21.6363C22.8655 17.0256 28.3753 14.04 34.3892 13.2571L34.0019 10.2822ZM16.645 19.6875C12.2228 24.8628 9.87729 31.4943 10.0622 38.299L13.0611 38.2175C12.8964 32.1551 14.986 26.247 18.9257 21.6363L16.645 19.6875Z" fill="black"/>
</svg>
