<svg width="75" height="75" viewBox="0 0 75 75" fill="none" xmlns="http://www.w3.org/2000/svg">
<rect x="1.5" y="1.5" width="72" height="72" rx="13.5" fill="black" stroke="#ffffff" stroke-width="3"/>
<path d="M40 22C40 20.8954 39.1046 20 38 20C36.8954 20 36 20.8954 36 22H40ZM36.5858 55.4142C37.3668 56.1953 38.6332 56.1953 39.4142 55.4142L52.1421 42.6863C52.9232 41.9052 52.9232 40.6389 52.1421 39.8579C51.3611 39.0768 50.0948 39.0768 49.3137 39.8579L38 51.1716L26.6863 39.8579C25.9052 39.0768 24.6389 39.0768 23.8579 39.8579C23.0768 40.6389 23.0768 41.9052 23.8579 42.6863L36.5858 55.4142ZM36 22V54H40V22H36Z" fill="#ffffff"/>
</svg>
