<svg width="75" height="75" viewBox="0 0 75 75" fill="none" xmlns="http://www.w3.org/2000/svg">
<rect x="1.5" y="1.5" width="72" height="72" rx="13.5" fill="#000000" stroke="#c2c2c2" stroke-width="3"/>
<path fill-rule="evenodd" clip-rule="evenodd" d="M39.5052 16.0726L39.0033 12.0188C38.6724 12.0063 38.3401 12 38.0062 12C36.8208 12 35.654 12.0794 34.5106 12.2331L34.0038 16.3266C32.8841 16.5199 31.7935 16.7978 30.7387 17.1537L28.7034 13.7149C27.2557 14.2701 25.8703 14.9511 24.5604 15.7446L25.6986 19.6123C24.7938 20.2076 23.9357 20.8679 23.1305 21.5866L19.9333 19.3127C18.8062 20.4032 17.7773 21.5946 16.8613 22.8725L19.4048 25.8933C18.8148 26.7858 18.288 27.7239 17.8308 28.701L14.0179 27.9579C13.4098 29.4067 12.929 30.9222 12.5893 32.4904L16.0989 34.1839C15.9145 35.2309 15.8041 36.3033 15.7731 37.3956L12 38.3038C12.0164 39.9235 12.1805 41.5077 12.4796 43.0436L16.3558 43.1285C16.6059 44.1852 16.9319 45.2124 17.3277 46.2041L14.235 48.6109C14.8807 50.0625 15.6551 51.4441 16.5438 52.741L20.1264 51.2004C20.7694 52.0624 21.474 52.8757 22.2337 53.6337L20.3496 57.1479C21.4896 58.2036 22.7244 59.1583 24.0394 59.998L26.7138 57.0834C27.6572 57.6332 28.6451 58.1148 29.6708 58.5215L29.3394 62.5861C30.7585 63.088 32.234 63.4702 33.754 63.7204L35.0561 59.8956C35.9456 60.0051 36.8516 60.0615 37.7706 60.0615C38.027 60.0615 38.2822 60.0571 38.5364 60.0484L39.8818 64C41.3798 63.8931 42.8431 63.6593 44.2603 63.3091L43.9242 59.1888C45.1604 58.8291 46.3515 58.3638 47.4873 57.8034L50.3685 60.9433C51.634 60.2575 52.8365 59.4698 53.9646 58.5911L51.9671 54.8655C53.0429 53.9554 54.0303 52.9439 54.9146 51.8456L58.8881 53.5544C59.7172 52.4384 60.4594 51.2537 61.1041 50.0104L57.7091 47.3684C58.3448 46.0103 58.8461 44.5766 59.1958 43.0845L63.5433 42.9892C63.7995 41.6581 63.9546 40.2908 64 38.8959L59.7766 37.8792C59.7658 36.3092 59.591 34.7782 59.2684 33.3025L63.1675 31.4209C62.8148 30.0727 62.3569 28.767 61.8031 27.5134L57.5396 28.3444C56.8897 27.0182 56.1105 25.7671 55.2186 24.6073L57.9667 21.3433C57.0602 20.2582 56.067 19.2481 54.9978 18.3237L51.4963 20.814C50.4511 19.9781 49.3282 19.2355 48.1401 18.599L49.3211 14.5862C48.0199 13.9559 46.6582 13.4309 45.2471 13.0223L43.0971 16.6548C41.9337 16.3653 40.7336 16.1684 39.5052 16.0726ZM38.0077 50.0487C44.6371 50.0487 50.0112 44.6692 50.0112 38.0333C50.0112 31.3974 44.6371 26.0179 38.0077 26.0179C31.3783 26.0179 26.0041 31.3974 26.0041 38.0333C26.0041 44.6692 31.3783 50.0487 38.0077 50.0487Z" fill="#c2c2c2"/>
</svg>
