<svg width="75" height="75" viewBox="0 0 75 75" fill="none" xmlns="http://www.w3.org/2000/svg">
<rect x="1.5" y="1.5" width="72" height="72" rx="13.5" fill="white" stroke="black" stroke-width="3"/>
<path d="M55.1614 21.8435L55.8661 21.1339L55.1614 21.8435L57.341 24.0082C58.3144 24.9749 58.7244 26.3729 58.4275 27.7122L51.2981 59.8659C50.8921 61.6969 49.2685 63 47.393 63H27.607C25.7315 63 24.1079 61.6969 23.7019 59.8659L16.5725 27.7122C16.2756 26.3729 16.6856 24.9749 17.659 24.0082L19.8385 21.8435C20.0043 21.6789 20.1842 21.5291 20.3761 21.3958L25.4358 17.8831L29.0732 15.7007C29.3582 15.5297 29.6634 15.3949 29.9818 15.2994L36.3506 13.3888C37.1004 13.1639 37.8996 13.1639 38.6493 13.3888L45.0182 15.2994C45.3365 15.3949 45.6417 15.5297 45.9268 15.7007L49.5642 17.8831L54.6239 21.3958L55.1764 20.6L54.6239 21.3958C54.8158 21.5291 54.9957 21.6788 55.1614 21.8435Z" fill="white" stroke="black" stroke-width="2"/>
<line x1="16.3324" y1="25.4977" x2="58.6676" y2="25.4977" stroke="black" stroke-width="2"/>
<path d="M29.5588 57.618L24.0737 33.0239" stroke="black" stroke-width="2" stroke-linecap="round"/>
<path d="M45.9457 57.618L51.4308 33.0239" stroke="black" stroke-width="2" stroke-linecap="round"/>
<path d="M37.7451 56.7537V32.801" stroke="black" stroke-width="2" stroke-linecap="round"/>
</svg>
